<svg xmlns="http://www.w3.org/2000/svg" viewBox="0 0 32 32">
  <defs>
    <linearGradient id="bg" x1="0%" y1="0%" x2="100%" y2="100%">
      <stop offset="0%" style="stop-color:#FF9F43"/>
      <stop offset="100%" style="stop-color:#F8B4B4"/>
    </linearGradient>
  </defs>
  <!-- Orange gradient circle background -->
  <circle cx="16" cy="16" r="16" fill="url(#bg)"/>
  <!-- Rocket body -->
  <path d="M16 6c-1.5 3-2.5 6-2.5 10 0 1.5.3 3 .8 4.2l1.7 1.8 1.7-1.8c.5-1.2.8-2.7.8-4.2 0-4-1-7-2.5-10z" fill="#1A1625"/>
  <!-- Rocket window -->
  <circle cx="16" cy="13" r="1.8" fill="#C4B5E0"/>
  <!-- Left fin -->
  <path d="M13.5 16c-1.5 1-2.5 2.5-3 4l3-.5v-3.5z" fill="#1A1625"/>
  <!-- Right fin -->
  <path d="M18.5 16c1.5 1 2.5 2.5 3 4l-3-.5v-3.5z" fill="#1A1625"/>
  <!-- Flame -->
  <path d="M14.5 22l1.5 4 1.5-4c-.5.3-1 .5-1.5.5s-1-.2-1.5-.5z" fill="#FF9F43"/>
  <path d="M15 22.5l1 2.5 1-2.5c-.3.2-.6.3-1 .3s-.7-.1-1-.3z" fill="#FFF8F0"/>
</svg>
